<?xml version="1.0" encoding="UTF-8"?>
<svg width="55px" height="55px" viewBox="0 0 512 512" version="1.1" xmlns="http://www.w3.org/2000/svg" xmlns:xlink="http://www.w3.org/1999/xlink">
    <!-- Generator: Sketch 49.1 (51147) - http://www.bohemiancoding.com/sketch -->
    <title>Phone_1</title>
    <desc>Created with Sketch.</desc>
    <defs></defs>
    <g id="Phone_1" stroke="none" stroke-width="1" fill="none" fill-rule="evenodd">
        <path d="M459.696848,300.517723 C463.814207,284.025153 466,266.767836 466,249 C466,131.915633 371.084367,37 254,37 C136.915633,37 42,131.915633 42,249 C42,366.084367 136.915633,461 254,461 C292.754365,461 329.079972,450.601249 360.338791,432.441776" id="Main-Circle" stroke="#060505" stroke-width="15" fill="#C0D1FF" stroke-linecap="round"></path>
        <path d="M352.174333,354.202671 L354.413548,356.081595 L391.071901,312.393871 L383.942322,306.411444 L388.454169,299.623897 C397.081303,296.001619 406.5569,294 416.5,294 C456.540644,294 489,326.459356 489,366.5 C489,406.540644 456.540644,439 416.5,439 C376.459356,439 344,406.540644 344,366.5 L352.174333,354.202671 Z" id="Corde-Filled" fill="#C7D5FA"></path>
        <path d="M338,367.5 C338,410.854353 373.145647,446 416.5,446 C459.854353,446 495,410.854353 495,367.5 C495,339.491195 480.925911,314.444113 458.851562,300.550781" id="Corde" stroke="#060505" stroke-width="15" stroke-linecap="round"></path>
        <path d="M210.594973,102.513158 C208.593585,102.384594 206.584138,102.47535 204.602488,102.783805 C189.59537,105.119747 179.323354,119.179075 181.659296,134.186193 L185.357613,157.945801 C187.116134,169.243311 196.873426,177.555533 208.306825,177.4962 C208.398591,177.495807 208.398591,177.495807 208.490358,177.495747 C227.10451,177.500513 242.190399,192.594128 242.185633,211.20828 L242.161177,306.730865 C242.155987,327.000621 225.827496,343.484932 205.558704,343.682629 C192.83488,343.806735 182.266784,353.534898 181.091787,366.204961 L178.723128,391.746373 C178.589156,393.190997 178.573308,394.644146 178.675742,396.091348 C179.715508,410.78138 192.467029,421.847107 207.157061,420.807341 L230.328578,419.167252 C238.947195,418.557223 246.778021,413.932098 251.472903,406.678769 C283.729352,356.844356 299.320429,309.552222 298.454123,264.74445 C297.595045,220.310485 284.811849,172.009777 260.015934,119.843415 C255.731745,110.830212 246.900865,104.845342 236.941807,104.205601 L210.594973,102.513158 Z" id="Phone" stroke="#060505" stroke-width="15" transform="translate(238.548772, 261.665960) scale(-1, -1) rotate(-54.000000) translate(-238.548772, -261.665960) "></path>
        <circle id="Circle-1" fill="#060505" cx="272.5" cy="219.5" r="18.5"></circle>
        <circle id="Circle-2" fill="#060505" cx="309.5" cy="172.5" r="18.5"></circle>
        <circle id="Circle-3" fill="#020202" cx="345.5" cy="126.5" r="17.5"></circle>
    </g>
</svg>
